Coordinates
version=1
nRows=12
nColumns=46
inDegrees=yes

Units are S.I. units (second, meters, Newtons, ...)
Angles are in degrees.

endheader
time	pelvis_tilt	pelvis_list	pelvis_rotation	pelvis_tx	pelvis_ty	pelvis_tz	bb_angle	bb_tx	bb_ty	bb_tz	hip_flexion_r	hip_adduction_r	hip_rotation_r	knee_angle_r	knee_angle_r_beta	ankle_angle_r	subtalar_angle_r	mtp_angle_r	crank_angle_r	hip_flexion_l	hip_adduction_l	hip_rotation_l	knee_angle_l	knee_angle_l_beta	ankle_angle_l	subtalar_angle_l	mtp_angle_l	crank_angle_l	lumbar_extension	lumbar_bending	lumbar_rotation	arm_flex_r	arm_add_r	arm_rot_r	elbow_flex_r	pro_sup_r	wrist_flex_r	wrist_dev_r	arm_flex_l	arm_add_l	arm_rot_l	elbow_flex_l	pro_sup_l	wrist_flex_l	wrist_dev_l
      0.00500000	    -26.12276941	      1.75573946	      1.23210537	      0.17347423	      1.11301333	     -0.21627788	      0.00000000	      0.50000000	      0.00000000	      0.25000000	     57.30274368	     -4.25065974	      4.23123277	     70.92940427	      1.23795164	     15.69974167	     -8.38367355	      0.00000000	      0.00000000	     81.98704932	     -0.64647047	      5.20619567	     68.84312851	      1.20153926	     11.11201323	     -7.51242692	      0.00000000	      0.00000000	    -42.74841951	     -0.80060422	     -3.92853447	     89.55190610	      0.78397418	     52.76529343	     17.34525571	     23.50114670	      0.00000000	      0.00000000	     89.72965095	     -5.19311761	     49.57289548	     21.24089505	     23.28321833	      0.00000000	      0.00000000
      0.01000000	    -26.04624123	      1.67495094	      1.28284114	      0.17348371	      1.11312193	     -0.21644331	      0.00000000	      0.50000000	      0.00000000	      0.25000000	     57.50007197	     -4.27043956	      4.13060463	     71.63277816	      1.25022783	     16.09399460	     -8.14920396	      0.00000000	      0.00000000	     81.54151984	     -0.59228809	      5.29686878	     68.14690434	      1.18938786	     10.67430660	     -7.64802714	      0.00000000	      0.00000000	    -42.83900972	     -0.67813845	     -3.94531414	     89.54641708	      0.78223776	     52.15709963	     17.44667548	     24.25847987	      0.00000000	      0.00000000	     89.72952142	     -5.14129287	     49.21566066	     21.12809904	     23.87399676	      0.00000000	      0.00000000
      0.01500000	    -26.07129779	      1.64866053	      1.17396402	      0.17359016	      1.11314415	     -0.21619452	      0.00000000	      0.50000000	      0.00000000	      0.25000000	     57.84964647	     -4.18321058	      4.13735431	     72.33034715	      1.26240271	     16.32881052	     -8.07746232	      0.00000000	      0.00000000	     81.16118685	     -0.73046437	      5.27045886	     67.45782917	      1.17736123	     10.39167567	     -7.67654013	      0.00000000	      0.00000000	    -42.74417653	     -0.71026823	     -3.88088436	     89.57021340	      0.24059698	     55.50053785	     17.12097715	     26.12023338	      0.00000000	      0.00000000	     89.73796595	     -5.89044491	     52.36679994	     21.05822922	     24.96551817	      0.00000000	      0.00000000
      0.02000000	    -26.16755543	      1.64146663	      1.23532172	      0.17326256	      1.11315311	     -0.21673299	      0.00000000	      0.50000000	      0.00000000	      0.25000000	     58.26437814	     -4.26876407	      4.13324229	     72.99678393	      1.27403422	     16.55483304	     -7.92855413	      0.00000000	      0.00000000	     80.89302432	     -0.72404784	      5.13068372	     66.72409248	      1.16455510	      9.81186463	     -8.36110283	      0.00000000	      0.00000000	    -42.64218102	     -0.75031440	     -3.74304309	     89.57802171	     -0.46351732	     57.09238972	     17.33739596	     26.39971023	      0.00000000	      0.00000000	     89.73149484	     -5.81483818	     52.43761987	     21.54113277	     24.45808119	      0.00000000	      0.00000000
      0.02500000	    -26.30730331	      1.45722623	      1.29554888	      0.17256193	      1.11356871	     -0.21730993	      0.00000000	      0.50000000	      0.00000000	      0.25000000	     58.65437039	     -4.16408323	      4.07216497	     73.55610141	      1.28379615	     16.74675583	     -8.07982349	      0.00000000	      0.00000000	     80.73653400	     -1.01020986	      4.96535569	     66.07058408	      1.15314923	      9.51704894	     -7.96664475	      0.00000000	      0.00000000	    -42.51528678	     -0.57405267	     -3.61610720	     89.57903234	     -0.44000572	     57.03849287	     17.27803409	     26.37318488	      0.00000000	      0.00000000	     89.73055448	     -5.83338079	     52.42223387	     21.60558378	     24.45266774	      0.00000000	      0.00000000
      0.03000000	    -26.21436473	      1.31820297	      0.94479668	      0.17366660	      1.11299731	     -0.21580018	      0.00000000	      0.50000000	      0.00000000	      0.25000000	     58.95334435	     -3.81457935	      3.93989841	     74.42851286	      1.29902261	     16.85895818	     -8.08317759	      0.00000000	      0.00000000	     80.15509350	     -1.06411300	      5.46374778	     65.39362311	      1.14133403	      9.32098319	     -7.85113055	      0.00000000	      0.00000000	    -42.58358314	     -0.66441521	     -3.44297744	     89.56917063	     -0.32123556	     57.04982281	     17.33778909	     26.38097619	      0.00000000	      0.00000000	     89.73156661	     -5.87536880	     52.39951448	     21.55296184	     24.43518220	      0.00000000	      0.00000000
      0.03500000	    -26.06672320	      1.37053832	      0.98451843	      0.17377276	      1.11331701	     -0.21593052	      0.00000000	      0.50000000	      0.00000000	      0.25000000	     59.11732499	     -3.91740241	      3.98715821	     75.15727946	      1.31174198	     17.29763601	     -7.70267952	      0.00000000	      0.00000000	     79.54223437	     -0.99420034	      5.39787503	     64.61586633	      1.12775962	      8.87252436	     -7.63466203	      0.00000000	      0.00000000	    -42.74845692	     -0.53687799	     -3.49122105	     89.57350329	      0.14716045	     55.30726308	     16.95095157	     27.82091709	      0.00000000	      0.00000000	     89.73550167	     -5.90941426	     52.62047285	     20.93888910	     25.84861950	      0.00000000	      0.00000000
      0.04000000	    -26.05741937	      1.30953103	      0.90645076	      0.17384517	      1.11333935	     -0.21580798	      0.00000000	      0.50000000	      0.00000000	      0.25000000	     59.43809552	     -3.81531590	      4.00889597	     75.84666846	      1.32377409	     17.51493210	     -7.63341118	      0.00000000	      0.00000000	     79.09971207	     -1.08909766	      5.43228943	     63.90983026	      1.11543696	      8.59602500	     -7.76793067	      0.00000000	      0.00000000	    -42.75093269	     -0.51590466	     -3.42226525	     89.57462093	      0.13626916	     55.29898886	     16.79604007	     29.16162281	      0.00000000	      0.00000000	     89.73524258	     -5.95996278	     52.65343177	     20.72829721	     26.77476778	      0.00000000	      0.00000000
      0.04500000	    -26.05137450	      1.22245091	      0.87278707	      0.17390172	      1.11337216	     -0.21580386	      0.00000000	      0.50000000	      0.00000000	      0.25000000	     59.77888027	     -3.78302371	      3.95448450	     76.55201040	      1.33608463	     17.70150068	     -7.42003049	      0.00000000	      0.00000000	     78.66649641	     -1.15614772	      5.52011013	     63.19998024	      1.10304774	      8.37519055	     -7.77677974	      0.00000000	      0.00000000	    -42.74799287	     -0.48708393	     -3.26610277	     89.58451246	     -0.31004396	     57.00652121	     17.09723305	     28.22888817	      0.00000000	      0.00000000	     89.73335025	     -5.53153763	     51.86642991	     20.74604413	     24.62608764	      0.00000000	      0.00000000
      0.05000000	    -26.01429877	      1.23440443	      0.77115086	      0.17397053	      1.11348909	     -0.21567331	      0.00000000	      0.50000000	      0.00000000	      0.25000000	     60.09973884	     -3.71248904	      4.03706824	     77.24781845	      1.34822877	     17.86750259	     -7.31157325	      0.00000000	      0.00000000	     78.14955420	     -1.24866011	      5.47177851	     62.43476477	      1.08969221	      8.06077847	     -7.90227296	      0.00000000	      0.00000000	    -42.80122665	     -0.50694670	     -3.27103958	     89.57415280	      0.12808483	     55.57294800	     17.13371994	     27.12513782	      0.00000000	      0.00000000	     89.73368723	     -5.84170083	     52.49823204	     20.94524854	     24.58892537	      0.00000000	      0.00000000
      0.05500000	    -26.02913042	      1.13734496	      0.74269136	      0.17407197	      1.11348765	     -0.21562772	      0.00000000	      0.50000000	      0.00000000	      0.25000000	     60.44532608	     -3.64012030	      3.98834957	     77.93025642	      1.36013956	     18.04618162	     -7.24460816	      0.00000000	      0.00000000	     77.72111553	     -1.32673927	      5.51490445	     61.70725857	      1.07699483	      7.80450506	     -7.94310604	      0.00000000	      0.00000000	    -42.79158572	     -0.41799439	     -3.18110004	     89.57264636	      0.11998877	     55.25917367	     16.98209842	     28.67465182	      0.00000000	      0.00000000	     89.73320550	     -5.97450986	     52.77825681	     20.80634569	     26.05679806	      0.00000000	      0.00000000
      0.06000000	    -25.97632848	      0.98169089	      0.67647396	      0.17416849	      1.11363108	     -0.21549893	      0.00000000	      0.50000000	      0.00000000	      0.25000000	     60.69722582	     -3.46695942	      3.93121271	     78.57094323	      1.37132166	     18.21107083	     -7.28166337	      0.00000000	      0.00000000	     77.21908409	     -1.46539004	      5.60439174	     60.97097307	      1.06414423	      7.48363462	     -7.96514805	      0.00000000	      0.00000000	    -42.84582005	     -0.30866675	     -3.00712360	     89.57399315	      0.09250682	     55.60971882	     17.26744387	     27.19492264	      0.00000000	      0.00000000	     89.73180470	     -5.92132421	     52.83736333	     20.87409929	     24.89094295	      0.00000000	      0.00000000
